<?xml version="1.0" encoding="UTF-8" standalone="no"?>
<!-- Created with Inkscape (http://www.inkscape.org/) -->

<svg
   width="210mm"
   height="210mm"
   viewBox="0 0 210 210"
   version="1.1"
   id="svg1"
   inkscape:version="1.3.2 (091e20e, 2023-11-25, custom)"
   sodipodi:docname="blue-stone-icon.svg"
   xmlns:inkscape="http://www.inkscape.org/namespaces/inkscape"
   xmlns:sodipodi="http://sodipodi.sourceforge.net/DTD/sodipodi-0.dtd"
   xmlns="http://www.w3.org/2000/svg"
   xmlns:svg="http://www.w3.org/2000/svg">
  <sodipodi:namedview
     id="namedview1"
     pagecolor="#000000"
     bordercolor="#000000"
     borderopacity="0.57254902"
     inkscape:showpageshadow="2"
     inkscape:pageopacity="0.0"
     inkscape:pagecheckerboard="true"
     inkscape:deskcolor="#cdd1d1"
     inkscape:document-units="mm"
     inkscape:zoom="1.4778115"
     inkscape:cx="509.87558"
     inkscape:cy="356.6084"
     inkscape:window-width="2344"
     inkscape:window-height="1360"
     inkscape:window-x="1087"
     inkscape:window-y="0"
     inkscape:window-maximized="0"
     inkscape:current-layer="layer1" />
  <defs
     id="defs1" />
  <g
     inkscape:label="Layer 1"
     inkscape:groupmode="layer"
     id="layer1">
    <ellipse
       style="opacity:0.79;fill:none;fill-rule:evenodd;stroke:#00ffff;stroke-width:1;stroke-dasharray:none"
       id="path2"
       transform="rotate(-13.506306)"
       ry="6.6816902"
       rx="34.779415"
       cy="76.209419"
       cx="65.842049" />
    <path
       style="opacity:0.79;fill:none;fill-rule:evenodd;stroke:#00ffff;stroke-width:1;stroke-dasharray:none"
       d="m 47.713432,67.273252 c -8.593788,36.165528 -7.967158,35.852208 -7.967158,35.852208 l 71.256836,35.09131 26.32124,-60.241544 -22.6286,-28.471423 c 0,0 4.73884,2.907296 -7.60946,7.673743 -13.498142,5.210286 -20.539584,6.794067 -45.469879,11.65052 -4.087529,0.796256 -13.245712,1.233798 -13.902979,-1.554814 z"
       id="path3"
       sodipodi:nodetypes="cccccssc" />
    <path
       style="opacity:0.79;fill:none;fill-rule:evenodd;stroke:#00ffff;stroke-width:1;stroke-dasharray:none"
       d="m 40.462422,98.82857 17.187576,3.93882 27.57174,-2.50652 30.257302,-8.951865 c 8.05668,-4.65497 6.11239,-2.913309 14.16907,-7.568278 l 7.11959,-5.833749 0.0633,-0.0633 -0.0701,-0.02358"
       id="path4"
       sodipodi:nodetypes="cccccccc" />
    <path
       style="opacity:0.79;fill:none;fill-rule:evenodd;stroke:#00ffff;stroke-width:1;stroke-dasharray:none"
       d="M 77.881209,121.92438 C 56.754812,103.48354 57.291924,102.58835 57.291924,102.58835 l 0.358074,-32.942855 v 0"
       id="path5" />
    <path
       style="opacity:0.79;fill:none;fill-rule:evenodd;stroke:#00ffff;stroke-width:1;stroke-dasharray:none"
       d="M 110.28695,137.85869 85.75885,100.08183 76.627949,66.959937 v 0"
       id="path6" />
    <path
       style="opacity:0.79;fill:none;fill-rule:evenodd;stroke:#00ffff;stroke-width:1;stroke-dasharray:none"
       d="M 111.36118,138.21677 116.19519,90.95093 96.85916,61.588819"
       id="path7" />
    <path
       style="opacity:0.79;fill:none;fill-rule:evenodd;stroke:#00ffff;stroke-width:1;stroke-dasharray:none"
       d="m 124.4309,107.78043 c 4.47593,-22.916766 4.47593,-23.453878 4.47593,-23.453878 v 0 L 112.79348,55.143479"
       id="path8" />
    <path
       style="opacity:0.79;fill:#008080;fill-rule:evenodd;stroke:#00ffff;stroke-width:2.55752;stroke-dasharray:none"
       d="m 185.24731,378.62699 c -15.72032,-3.60441 -28.78481,-6.75588 -29.03221,-7.00327 -0.52444,-0.52444 7.54082,-37.07595 17.88127,-81.03742 l 7.25287,-30.83493 3.38339,1.53235 c 4.65739,2.10936 11.24169,3.05647 21.8775,3.14692 l 9.02065,0.0767 -0.47678,50.78725 c -0.26223,27.93299 -0.66747,55.08445 -0.90054,60.33656 l -0.42375,9.54929 z"
       id="path9"
       transform="scale(0.26458333)" />
    <path
       style="opacity:0.79;fill:#008080;fill-rule:evenodd;stroke:#00ffff;stroke-width:2.55752;stroke-dasharray:none"
       d="m 218.93163,372.34113 c 0.081,-41.3293 1.27367,-107.64818 1.94341,-108.0621 0.39935,-0.24682 7.35139,-1.135 15.44898,-1.97374 15.82889,-1.63955 32.77327,-4.01083 44.11072,-6.17306 3.88164,-0.74029 7.13996,-1.26355 7.24072,-1.16279 0.59605,0.59605 33.4295,121.12773 33.08867,121.46857 -0.31057,0.31056 -96.28149,9.40842 -101.01351,9.57587 -0.65066,0.023 -0.83965,-3.13197 -0.81899,-13.67275 z"
       id="path10"
       transform="scale(0.26458333)" />
    <path
       style="opacity:0.79;fill:#008080;fill-rule:evenodd;stroke:#00ffff;stroke-width:2.55752;stroke-dasharray:none"
       d="m 325.64324,374.76844 c -0.28434,-0.48937 -32.94409,-118.69862 -33.21768,-120.2286 -0.0558,-0.31192 5.75329,-1.89309 12.90903,-3.51373 16.70316,-3.78293 31.2042,-7.58176 46.78871,-12.25722 6.83749,-2.0513 12.67018,-3.47746 12.96153,-3.16925 0.94705,1.00183 70.35636,106.61473 70.35636,107.05392 0,0.32232 -100.56369,30.40249 -108.02267,32.31126 -0.79538,0.20355 -1.59426,0.11517 -1.77528,-0.19638 z"
       id="path11"
       transform="scale(0.26458333)" />
    <path
       style="opacity:0.79;fill:#008080;fill-rule:evenodd;stroke:#00ffff;stroke-width:2.55752;stroke-dasharray:none"
       d="m 404.54468,287.04198 -35.26462,-53.54036 11.25776,-4.13795 c 14.99822,-5.5128 22.89515,-8.91904 34.32791,-14.80688 l 9.53664,-4.91135 29.74122,53.85787 29.74122,53.85787 -2.73734,1.5988 c -1.50554,0.87934 -9.28418,4.90029 -17.28588,8.93544 -8.00169,4.03515 -16.68688,8.54046 -19.30042,10.01178 l -4.75187,2.67513 z"
       id="path12"
       transform="scale(0.26458333)" />
    <path
       style="opacity:0.79;fill:#008080;fill-rule:evenodd;stroke:#00ffff;stroke-width:2.55752;stroke-dasharray:none"
       d="m 459.09439,263.05791 c -15.76209,-28.5642 -29.09407,-52.69855 -29.62663,-53.63189 -0.94007,-1.64752 -0.81829,-1.84698 4.17812,-6.8434 l 5.14642,-5.14642 37.90268,47.68962 c 20.84647,26.22929 37.73707,47.95757 37.53467,48.28508 -0.42841,0.69316 -25.78646,21.58191 -26.19954,21.58191 -0.15257,0 -13.17364,-23.37071 -28.93572,-51.9349 z"
       id="path13"
       transform="scale(0.26458333)" />
    <path
       style="opacity:0.79;fill:#008080;fill-rule:evenodd;stroke:#00ffff;stroke-width:2.55752;stroke-dasharray:none"
       d="m 477.39512,383.08832 c 0,-0.26089 2.42197,-13.07386 5.38215,-28.47325 2.96019,-15.39939 5.58917,-29.55945 5.84219,-31.4668 0.28099,-2.1182 0.88572,-3.70397 1.55378,-4.07442 0.60156,-0.33359 6.11481,-4.71571 12.25167,-9.73805 6.13687,-5.02235 11.24537,-9.04411 11.35224,-8.93724 0.20355,0.20355 -35.56688,82.34896 -36.08444,82.86652 -0.16368,0.16368 -0.29759,0.0841 -0.29759,-0.17676 z"
       id="path14"
       transform="scale(0.26458333)" />
    <path
       style="opacity:0.79;fill:#008080;fill-rule:evenodd;stroke:#00ffff;stroke-width:2.55752;stroke-dasharray:none"
       d="m 425.33418,501.75546 c 0.009,-0.93043 3.59184,-36.53083 7.96087,-79.11202 l 7.94369,-77.42033 2.6838,-1.70994 c 1.4761,-0.94047 9.83966,-5.33808 18.5857,-9.77248 8.74604,-4.43439 17.19604,-8.8048 18.77777,-9.71201 1.58173,-0.90722 2.87587,-1.38831 2.87587,-1.0691 0,0.93621 -9.92588,52.62942 -13.15259,68.49765 l -2.95836,14.54854 -21.36697,48.72069 c -11.75183,26.79638 -21.35924,47.95943 -21.34978,47.029 z"
       id="path15"
       transform="scale(0.26458333)" />
    <path
       style="opacity:0.79;fill:#008080;fill-rule:evenodd;stroke:#00ffff;stroke-width:2.55752;stroke-dasharray:none"
       d="m 372.93835,449.24589 c -24.81653,-38.21699 -45.03759,-69.55385 -44.93566,-69.63748 0.35121,-0.28818 108.36707,-32.1087 108.46518,-31.95289 0.33664,0.53464 -17.42749,170.09475 -17.8661,170.53335 -0.29833,0.29834 -20.84688,-30.726 -45.66342,-68.94298 z"
       id="path16"
       transform="scale(0.26458333)" />
    <path
       style="opacity:0.79;fill:#008080;fill-rule:evenodd;stroke:#00ffff;stroke-width:2.55752;stroke-dasharray:none"
       d="m 352.11676,486.67483 -56.59572,-27.88831 -13.44028,-11.83298 c -28.66358,-25.23574 -61.25324,-55.65379 -60.43582,-56.40867 0.43344,-0.40027 101.42734,-9.50797 101.73763,-9.17476 0.26441,0.28394 85.02056,130.88577 85.92074,132.39636 0.27723,0.46521 0.2577,0.83478 -0.0434,0.82125 -0.30109,-0.0135 -26.01552,-12.57433 -57.14316,-27.91289 z"
       id="path17"
       transform="scale(0.26458333)" />
    <path
       style="opacity:0.79;fill:#008080;fill-rule:evenodd;stroke:#00ffff;stroke-width:2.55752;stroke-dasharray:none"
       d="m 214.84472,419.0977 c -34.05373,-16.77043 -62.01642,-30.58509 -62.1393,-30.69925 -0.30154,-0.28012 1.78428,-11.24614 2.22244,-11.68431 0.19064,-0.19064 13.6738,2.71618 29.96257,6.4596 l 29.61595,6.80622 13.87187,13.76465 c 11.60803,11.51832 20.91739,20.11692 47.36734,43.75089 1.3026,1.16392 2.06386,2.1112 1.69169,2.10505 -0.37218,-0.006 -28.53883,-13.73243 -62.59256,-30.50285 z"
       id="path18"
       transform="scale(0.26458333)" />
    <path
       style="opacity:0.69767442;fill:#000080;fill-rule:evenodd;stroke:#00ffff;stroke-width:2.55752;stroke-dasharray:none"
       d="m 196.93698,258.11085 c -8.45916,-1.30597 -13.21937,-3.82484 -13.21937,-6.99504 0,-0.87264 1.22343,-2.95995 2.75423,-4.69903 11.79817,-13.40343 61.63357,-33.38748 115.76406,-46.42151 37.91054,-9.12845 70.22714,-14.03289 97.00311,-14.72141 20.84619,-0.53604 30.5731,0.91547 33.9762,5.07015 2.05943,2.51426 1.93034,3.51166 -0.87935,6.79416 -5.64085,6.59006 -16.30069,12.35771 -37.49525,20.2873 -37.49073,14.02653 -61.9767,20.43078 -132.83567,34.74286 l -30.58165,6.17687 -15.22522,0.19437 c -8.37387,0.1069 -17.04136,-0.086 -19.26109,-0.42872 z"
       id="path19"
       transform="scale(0.26458333)" />
    <path
       style="opacity:0.511628;fill:#000080;fill-rule:evenodd;stroke:#00ffff;stroke-width:2.55752;stroke-dasharray:none"
       d="m 208.4163,382.27216 c -1.86086,-0.45272 -13.64565,-3.18789 -26.18842,-6.07814 -12.54277,-2.89026 -23.14132,-5.46285 -23.55234,-5.71687 -0.88012,-0.54395 2.84372,-18.37794 12.8571,-61.57443 11.2084,-48.35166 10.81578,-46.84659 12.08289,-46.31764 4.29039,1.79102 8.65204,2.52908 18.92951,3.20316 l 11.72233,0.76886 -0.3847,21.68032 c -0.21159,11.92417 -0.56827,37.05779 -0.79263,55.85247 -0.22437,18.79468 -0.60648,35.25964 -0.84915,36.58878 l -0.44121,2.41663 z"
       id="path20"
       transform="scale(0.26458333)" />
    <path
       style="opacity:0.511628;fill:#000080;fill-rule:evenodd;stroke:#00ffff;stroke-width:2.55752;stroke-dasharray:none"
       d="m 220.73346,381.18412 c -0.45778,-3.41305 0.6269,-95.58819 1.26195,-107.2387 l 0.44853,-8.22859 2.12131,-0.36956 c 1.16672,-0.20326 6.53662,-0.85226 11.93311,-1.44221 14.365,-1.57041 28.79283,-3.54418 39.87419,-5.45492 5.36915,-0.92579 9.96372,-1.44773 10.21016,-1.15986 0.75606,0.88316 31.79348,115.02152 31.79348,116.91874 0,0.55439 -0.22838,1.02546 -0.50751,1.04682 -0.27912,0.0214 -1.87777,0.17592 -3.55255,0.34345 -1.67477,0.16754 -19.18377,1.82403 -38.90888,3.6811 -19.72512,1.85707 -39.0379,3.68181 -42.9173,4.05495 -11.55781,1.11171 -11.31282,1.15654 -11.75649,-2.15122 z"
       id="path21"
       transform="scale(0.26458333)" />
    <path
       style="opacity:0.511628;fill:#000080;fill-rule:evenodd;stroke:#00ffff;stroke-width:2.55752;stroke-dasharray:none"
       d="m 319.83284,347.98078 c -18.97124,-68.47314 -25.18224,-91.4502 -24.91116,-92.15663 0.16303,-0.42485 2.69032,-1.32308 5.61621,-1.99607 15.84007,-3.6434 31.50664,-7.64847 46.59264,-11.91114 15.91553,-4.49707 16.96486,-4.70788 17.80049,-3.57615 0.48839,0.66144 9.91187,14.90531 20.94107,31.65305 11.02919,16.74774 26.25468,39.86143 33.83443,51.36375 10.23851,15.53704 13.55405,21.05833 12.89715,21.47737 -0.48631,0.31022 -1.28275,0.41767 -1.76986,0.23877 -0.48712,-0.1789 -13.42855,3.45419 -28.75874,8.07354 -34.25231,10.32101 -73.97793,22.0397 -74.71325,22.0397 -0.29993,0 -3.68798,-11.34279 -7.52898,-25.20619 z"
       id="path22"
       transform="scale(0.26458333)" />
    <path
       style="opacity:0.511628;fill:#000080;fill-rule:evenodd;stroke:#00ffff;stroke-width:2.55752;stroke-dasharray:none"
       d="m 424.39324,314.14696 c -39.76158,-60.27601 -51.99299,-78.9692 -52.00139,-79.47343 -0.005,-0.29895 4.51106,-2.24115 10.03567,-4.31602 14.16473,-5.31983 20.53734,-8.06109 31.46142,-13.53355 5.25051,-2.63027 9.78438,-4.53224 10.07527,-4.22662 1.6394,1.72248 57.4957,104.00864 57.03317,104.44128 -0.62974,0.58904 -40.03103,20.96118 -40.54054,20.96118 -0.18088,0 -7.4095,-10.73377 -16.0636,-23.85284 z"
       id="path23"
       transform="scale(0.26458333)" />
    <path
       style="opacity:0.511628;fill:#000080;fill-rule:evenodd;stroke:#00ffff;stroke-width:2.55752;stroke-dasharray:none"
       d="m 484.32935,306.45675 c -1.95297,-3.50841 -3.55085,-6.66293 -3.55085,-7.01008 0,-0.34715 -11.3095,-21.07737 -25.13222,-46.06715 l -25.13223,-45.43597 4.05613,-4.05612 4.05613,-4.05613 8.77503,11.05926 c 4.82627,6.08259 16.5088,20.8034 25.96119,32.7129 27.20733,34.27977 38.58735,49.11663 38.17932,49.77683 -0.38619,0.62487 -21.7493,18.34149 -22.98327,19.06023 -0.37311,0.21732 -2.27626,-2.47537 -4.22923,-5.98377 z"
       id="path24"
       transform="scale(0.26458333)" />
    <path
       style="opacity:0.511628;fill:#000080;fill-rule:evenodd;stroke:#00ffff;stroke-width:2.55752;stroke-dasharray:none"
       d="m 482.13185,367.70368 c 0,-0.90077 7.68706,-42.55489 8.42019,-45.62673 0.31753,-1.33047 19.14467,-16.96204 19.72755,-16.37915 0.36976,0.36975 -2.4425,6.80671 -3.18579,7.29193 -0.30776,0.2009 -5.92364,12.68558 -12.47974,27.74372 -6.55609,15.05815 -12.04663,27.50533 -12.20119,27.6604 -0.15456,0.15507 -0.28102,-0.15551 -0.28102,-0.69017 z"
       id="path25"
       transform="scale(0.26458333)" />
    <path
       style="opacity:0.511628;fill:#000080;fill-rule:evenodd;stroke:#00ffff;stroke-width:2.55752;stroke-dasharray:none"
       d="m 428.36128,487.54526 c 0.22188,-2.41911 3.53835,-35.10039 7.36992,-72.62506 5.09645,-49.91228 7.21864,-68.47065 7.90581,-69.13556 1.07109,-1.0364 37.85948,-20.14976 38.17435,-19.83344 0.24007,0.24119 -1.6721,10.35412 -9.50721,50.28081 l -5.70993,29.09708 -14.13837,32.14213 c -18.33704,41.68735 -22.823,51.74719 -23.74306,53.24414 -0.58204,0.94698 -0.66254,0.22094 -0.35151,-3.1701 z"
       id="path26"
       transform="scale(0.26458333)" />
    <path
       style="opacity:0.511628;fill:#000080;fill-rule:evenodd;stroke:#00ffff;stroke-width:2.55752;stroke-dasharray:none"
       d="m 416.26774,512.14666 c -3.07839,-4.12266 -59.22175,-90.21056 -79.6914,-122.19549 -3.2692,-5.10831 -5.73272,-9.41204 -5.47448,-9.56384 0.55164,-0.32427 99.01328,-29.25146 101.90789,-29.93967 l 1.96695,-0.46765 -0.44971,3.65253 c -0.24734,2.0089 -2.58753,24.20658 -5.20043,49.32819 -4.77202,45.88033 -11.32649,107.63579 -11.64604,109.72758 -0.13828,0.90517 -0.41032,0.80087 -1.41278,-0.54165 z"
       id="path27"
       transform="scale(0.26458333)" />
    <path
       style="opacity:0.511628;fill:#000080;fill-rule:evenodd;stroke:#00ffff;stroke-width:2.55752;stroke-dasharray:none"
       d="m 350.24385,483.94195 -53.73189,-26.50878 -11.1655,-9.80794 c -30.40199,-26.70555 -61.24735,-55.69508 -59.58015,-55.99546 2.129,-0.38359 84.05345,-7.68106 90.24151,-8.03832 l 6.76677,-0.39067 3.81758,5.98908 c 2.09967,3.294 19.92183,30.80619 39.6048,61.13821 40.14752,61.86849 39.11174,60.24291 38.34147,60.17343 -0.30949,-0.0279 -24.74205,-11.97971 -54.29459,-26.55955 z"
       id="path28"
       transform="scale(0.26458333)" />
    <path
       style="opacity:0.511628;fill:#000080;fill-rule:evenodd;stroke:#00ffff;stroke-width:2.55752;stroke-dasharray:none"
       d="m 253.75361,436.4082 c -7.07127,-3.51957 -32.269,-15.96441 -55.99497,-27.65521 -28.90745,-14.24394 -43.13811,-21.59631 -43.13811,-22.28761 0,-1.14994 1.40422,-8.08081 1.7058,-8.41939 0.10584,-0.11883 0.75498,0.0935 1.44252,0.47193 0.68754,0.3784 3.68611,1.18921 6.66349,1.80182 2.97737,0.61261 15.28726,3.37284 27.35531,6.13385 l 21.9419,5.02001 13.92195,13.69665 c 7.65706,7.53316 18.62985,17.95875 24.38396,23.16798 15.23121,13.78888 15.99514,14.5147 15.25167,14.49087 -0.37217,-0.0119 -6.46226,-2.90134 -13.53352,-6.4209 z"
       id="path29"
       transform="scale(0.26458333)" />
  </g>
</svg>
